# xmcd
#
# Track frame offsets: 
#        150
#        14270
#        39350
#        59233
#        76163
#        98968
#        116085
#        136213
#        147513
#        167808
#
# Disc length: 2482 seconds
#
# Revision: 2
# Processed by: cddbd v1.5.2PL0 Copyright (c) Steve Scherf et al.
# Submitted via: ExactAudioCopy v0.99pb5
#
DISCID=8909b00a
DTITLE=Rod Stewart - Foolish Behaviour (Japan SHM-CD, WPCR-13342)
DYEAR=1980
DGENRE=Rock
TTITLE0=Better Off Dead
TTITLE1=Passion
TTITLE2=Foolish Behaviour
TTITLE3=So Soon We Change
TTITLE4=Oh God, I Wish I Was Home Tonight
TTITLE5=Gi' Me Wings
TTITLE6=My Girl
TTITLE7=She Won't Dance With Me
TTITLE8=Somebody Special
TTITLE9=Say It Ain't True
EXTD=
EXTT0=
EXTT1=
EXTT2=
EXTT3=
EXTT4=
EXTT5=
EXTT6=
EXTT7=
EXTT8=
EXTT9=
PLAYORDER=
